<svg width="400" height="400" xmlns="http://www.w3.org/2000/svg">
	<circle r="1e5" fill="black"/>	<path fill="white" d="M 294 341 292 343 292 344 291 345 291 346 290 347 290 348 288 350 288 351 287 352 287 353 285 355 285 356 284 357 284 358 283 359 283 360 282 361 282 362 281 363 281 364 280 365 280 366 279 367 279 368 280 368 282 366 282 365 283 364 283 363 284 362 284 360 285 359 285 358 286 357 286 356 287 355 287 354 288 353 288 352 289 351 289 350 290 349 290 348 291 347 291 346 292 345 292 344 293 343 293 342  Z "/>
	<path fill="white" d="M 103 340  Z "/>
	<path fill="white" d="M 302 314 301 315 301 317 300 318 300 320 299 321 299 324 298 325 298 327 297 328 297 331 296 332 296 336 295 337 296 336 296 335 297 334 297 331 298 330 298 326 299 325 299 323 300 322 300 319 301 318 301 315  Z "/>
	<path fill="white" d="M 302 312  Z "/>
	<path fill="white" d="M 192 312  Z "/>
	<path fill="white" d="M 183 306  Z "/>
	<path fill="white" d="M 195 295 193 297 193 298 192 299 192 300 191 301 190 301 190 304 189 305 188 304 187 305 187 307 186 308 185 308 185 309 180 314 180 320 181 321 181 325 182 326 182 329 183 330 183 331 184 332 184 334 185 335 185 336 186 337 186 338 187 339 187 340 188 341 188 342 189 343 189 344 191 346 191 348 192 349 192 350 194 352 194 353 195 354 195 355 196 356 196 358 197 359 197 360 198 361 198 363 199 364 199 365 200 366 200 367 201 368 201 369 202 370 202 371 203 372 203 373 208 378 209 378 212 381 213 381 215 383 216 383 221 388 221 389 228 396 229 396 230 397 230 398 231 399 236 399 236 398 237 397 237 395 238 394 238 391 239 390 239 388 240 387 240 379 239 378 239 377 236 374 236 373 235 372 235 369 234 368 234 363 235 362 235 361 239 357 240 357 241 356 242 356 243 355 243 354 245 352 245 351 250 346 250 345 253 342 253 341 254 340 254 339 256 337 256 336 257 335 257 334 258 333 258 330 259 329 259 328 258 328 257 329 256 329 255 328 257 326 257 325 256 326 255 326 254 325 254 323 253 322 250 322 249 323 247 323 246 324 243 324 243 325 242 326 241 326 240 327 238 327 237 326 233 326 232 327 225 327 224 326 219 326 218 325 211 325 210 326 209 325 207 325 206 324 205 324 204 323 204 322 202 322 201 321 200 321 199 322 197 320 197 319 195 319 194 318 190 318 189 317 190 316 188 316 187 317 183 317 182 316 182 314 185 311 186 311 188 309 190 309 190 308 191 307 191 306 192 305 193 306 193 304 192 303 192 302 191 301 192 300 193 300 193 297 194 296 195 296  Z "/>
	<path fill="white" d="M 253 326 254 325 255 326 254 327  Z "/>
	<path fill="white" d="M 187 295 187 296 188 296 188 295  Z "/>
	<path fill="white" d="M 183 289 182 290 182 293 182 292 183 291 183 290 184 289  Z "/>
	<path fill="white" d="M 186 288  Z "/>
	<path fill="white" d="M 306 285 306 286  Z "/>
	<path fill="white" d="M 184 285 184 287  Z "/>
	<path fill="white" d="M 187 282 187 284  Z "/>
	<path fill="white" d="M 187 274 186 275 186 276 187 275  Z "/>
	<path fill="white" d="M 226 244 226 248 225 249 225 251 226 252 227 252 227 247 226 246 227 245  Z "/>
	<path fill="white" d="M 182 199  Z "/>
	<path fill="white" d="M 238 198 238 199  Z "/>
	<path fill="white" d="M 175 175  Z "/>
	<path fill="white" d="M 261 160 261 161 262 160  Z "/>
	<path fill="white" d="M 277 159 276 160 277 161 277 162 278 163 278 166 279 167 279 171 280 172 282 170 284 172 284 167 283 166 283 165 282 164 282 163 281 162 281 160 280 159  Z "/>
	<path fill="white" d="M 213 139 212 140 209 140 208 141 205 141 204 142 204 143 202 145 199 145 198 146 197 146 196 147 195 147 194 148 193 148 192 149 191 149 190 150 189 150 188 151 187 151 184 154 184 156 185 157 186 157 187 156 188 156 189 157 185 161 185 162 187 162 190 159 191 159 192 158 193 158 195 156 196 156 197 155 198 155 199 154 200 154 201 153 203 153 204 152 206 152 207 151 208 151 209 150 211 152 212 152 212 151 210 151 209 150 210 149 217 149 218 150 220 150 221 151 222 151 223 152 226 152 227 153 227 152 225 152 224 151 223 151 222 150 221 150 220 149 220 147 221 146 221 142 220 142 219 141 217 141 216 140 214 140  Z "/>
	<path fill="white" d="M 192 152 193 151 194 151 195 152 190 157 189 157 188 156 190 154 190 153 191 152  Z "/>
	<path fill="white" d="M 176 60 177 61 180 61 181 60 183 60 184 61 185 61 185 60  Z "/>
	<path fill="white" d="M 200 57 200 58 204 58 205 57 206 57  Z "/>
	<path fill="white" d="M 181 57 182 58 184 58 184 57  Z "/>
	<path fill="white" d="M 191 55 192 55  Z "/>
	<path fill="white" d="M 0 0 0 399 62 399 62 398 65 395 65 394 67 392 67 391 69 389 69 387 70 386 71 386 71 385 72 384 72 383 73 382 73 381 75 379 75 377 77 375 77 374 80 371 80 370 82 368 82 367 84 365 85 365 88 362 88 361 89 360 89 359 91 357 91 356 92 355 92 353 93 352 93 350 94 349 94 347 95 346 95 345 96 344 96 343 101 338 102 338 104 336 105 336 105 335 109 331 110 332 111 332 112 331 112 330 113 329 114 329 117 326 118 326 119 325 121 325 122 324 123 324 124 323 126 323 127 322 131 322 132 321 138 321 139 322 140 321 141 322 144 322 146 320 148 320 148 319 149 318 150 318 151 319 152 319 153 318 153 317 154 316 156 316 157 315 157 314 158 313 158 312 159 311 160 311 161 310 162 310 163 311 163 312 164 312 164 311 163 310 165 308 169 312 169 313 170 314 170 315 166 319 166 320 164 322 164 324 163 325 165 323 165 322 166 321 166 320 167 319 168 319 170 317 170 314 171 313 171 312 172 311 172 309 173 308 174 308 175 309 175 308 176 307 176 306 177 305 177 304 178 303 180 303 181 302 181 300 180 300 178 298 178 297 177 297 176 296 175 296 174 295 174 294 175 293 176 293 177 294 177 288 176 287 177 286 179 286 179 284 180 283 181 283 181 282 182 281 182 278 181 277 181 275 182 274 183 274 183 270 182 269 182 268 181 267 181 264 182 263 184 265 185 265 186 266 186 267 187 268 189 268 190 269 191 269 192 268 194 270 194 273 195 273 196 272 198 274 200 274 202 276 203 276 203 275 204 274 205 274 206 273 209 273 209 271 211 269 211 268 213 266 215 268 215 266 214 265 214 264 215 263 216 264 216 262 215 261 214 261 213 260 215 258 215 257 214 257 213 258 213 259 212 260 212 261 213 262 212 263 210 263 209 264 207 264 208 265 208 267 207 268 206 268 203 265 203 264 204 263 203 262 204 261 204 260 205 259 205 258 208 255 212 255 212 252 213 251 213 250 214 249 214 248 215 247 214 247 213 246 213 242 209 242 207 244 206 244 206 245 204 247 203 247 200 250 199 250 197 252 196 252 195 251 194 251 193 252 190 252 189 251 190 250 191 250 192 249 193 249 193 248 189 248 188 249 184 249 183 248 184 247 184 244 183 244 182 243 181 243 180 244 171 244 170 243 171 242 171 240 173 238 174 238 175 239 176 239 178 237 178 234 177 234 176 233 176 229 175 228 175 220 174 219 173 219 172 220 170 220 169 219 167 219 166 218 162 218 161 217 160 217 159 216 164 211 164 210 165 209 166 209 166 208 167 207 167 206 168 205 168 204 169 203 169 202 170 201 170 200 171 199 174 199 175 198 177 200 178 200 179 201 179 202 181 202 181 201 180 201 178 199 178 193 177 193 176 192 176 190 177 189 177 187 176 186 176 184 175 183 175 182 174 181 174 177 173 176 173 170 172 169 172 167 171 166 171 163 172 162 172 161 171 160 172 159 172 154 173 153 173 152 174 151 179 151 179 150 181 148 181 147 182 146 182 144 185 141 186 141 189 138 191 138 192 137 194 137 195 136 196 136 196 135 198 133 199 133 200 132 203 132 205 130 206 130 207 129 221 129 222 130 225 130 226 131 227 131 229 133 230 133 231 134 233 134 234 135 234 136 237 136 239 138 239 145 238 146 238 148 235 151 234 151 234 154 235 154 236 153 237 153 238 152 240 152 239 151 240 150 245 150 246 149 247 149 248 150 249 150 251 152 250 153 250 156 251 157 249 159 247 157 247 155 246 154 241 154 240 155 239 155 238 156 237 156 235 158 236 158 237 159 238 159 239 160 238 161 232 161 231 162 225 162 224 163 223 163 222 164 218 164 217 163 218 162 218 161 215 161 214 162 209 162 208 163 207 163 206 162 205 162 203 160 203 159 202 158 202 157 203 156 205 156 206 155 203 155 202 156 200 156 199 157 198 157 195 160 193 160 193 162 192 163 189 163 187 165 187 167 188 168 187 169 187 170 189 172 189 174 191 176 191 177 192 178 192 180 193 181 193 184 194 185 194 187 195 188 195 189 197 191 197 192 201 196 201 197 202 198 202 199 203 200 203 201 204 202 204 205 205 206 205 208 204 209 204 211 203 212 203 215 202 216 203 217 203 218 206 221 207 221 209 223 210 223 211 224 212 224 214 226 216 226 217 227 220 227 224 231 224 232 225 233 225 234 226 235 226 237 227 238 227 240 233 240 234 239 234 237 235 236 235 229 236 228 236 221 235 220 235 217 234 216 234 214 235 213 235 212 236 211 235 210 235 206 234 205 234 204 233 204 231 202 232 201 232 200 233 199 234 199 235 198 236 198 235 197 235 194 236 193 236 191 237 190 238 190 239 189 242 189 243 190 243 191 242 192 246 192 245 192 244 191 244 190 245 189 246 190 245 189 245 184 244 183 246 181 247 182 247 183 247 180 248 179 249 179 249 177 252 174 253 174 253 173 254 172 255 172 254 171 254 170 256 168 255 168 254 167 255 166 257 166 257 165 256 164 256 163 256 164 255 165 254 165 253 164 254 163 254 161 256 159 257 159 258 160 259 160 258 160 257 159 257 158 258 157 259 158 262 158 263 157 262 156 262 155 263 154 263 152 262 151 262 149 261 148 261 147 259 147 257 145 257 144 258 143 259 144 260 144 259 143 259 140 258 139 258 135 257 134 257 131 253 127 253 126 252 125 252 124 251 124 250 123 250 122 244 116 244 115 243 114 243 112 242 111 243 110 242 109 242 107 241 106 241 104 240 103 240 101 239 100 239 99 238 98 238 97 237 96 237 94 236 93 236 92 235 91 235 90 233 88 233 87 232 86 232 83 231 82 231 81 228 78 228 77 226 75 226 73 225 73 224 72 224 71 219 66 218 66 216 64 214 64 213 63 212 63 211 62 210 62 209 61 202 61 200 63 201 64 199 66 198 65 194 65 191 68 187 68 186 69 184 69 183 70 182 70 181 71 180 71 179 72 177 72 176 73 172 73 171 74 168 74 167 75 161 75 160 76 159 76 157 78 155 78 154 79 140 79 139 78 138 79 137 78 135 78 134 77 135 76 137 76 135 76 134 77 130 77 129 78 129 79 127 81 127 82 125 84 124 83 124 80 126 78 126 73 127 72 127 71 132 66 133 66 135 64 135 63 136 62 140 62 140 61 143 58 144 58 145 57 146 57 147 58 150 58 151 57 152 58 154 58 153 57 152 57 150 55 150 54 153 51 154 51 155 50 158 50 159 49 161 49 162 48 164 48 165 47 166 48 166 49 167 50 171 50 172 51 173 51 174 50 179 50 180 49 187 49 188 50 189 50 190 51 189 52 188 52 187 53 194 53 194 52 195 51 198 51 199 50 207 50 208 51 209 51 210 52 211 52 212 51 213 51 209 47 210 46 213 46 214 47 220 47 221 48 223 48 224 49 227 49 228 50 235 50 235 49 236 48 237 48 238 47 239 48 242 48 243 49 244 49 245 50 246 50 247 51 248 51 249 52 251 52 252 53 253 53 255 55 256 55 260 59 261 59 263 61 263 63 264 63 265 64 265 67 266 68 266 70 267 71 271 71 274 74 274 75 275 76 275 78 276 79 276 80 277 81 277 82 278 83 278 86 279 87 279 90 280 91 280 93 281 94 281 96 282 97 282 98 283 99 283 102 284 103 284 111 285 112 285 119 286 120 286 128 287 129 287 130 288 131 288 137 289 138 290 138 292 140 293 140 294 139 298 139 301 142 301 143 302 144 302 146 301 147 300 147 298 145 295 145 294 146 293 146 293 147 295 149 295 150 296 151 296 153 297 154 297 157 299 159 299 160 300 161 300 165 301 166 301 173 300 174 300 178 301 179 301 181 300 182 300 185 297 188 296 188 292 184 292 183 290 183 290 186 291 187 291 192 292 193 291 194 290 194 290 195 289 196 289 197 288 198 285 198 284 197 284 198 285 199 285 200 286 201 286 203 285 204 285 205 284 206 282 206 280 208 280 210 278 212 278 219 277 220 278 221 278 225 277 226 278 227 278 246 279 247 279 251 280 252 280 253 281 254 281 257 280 258 280 259 282 259 281 258 281 247 282 246 283 247 283 248 284 248 286 250 287 250 289 252 290 252 291 253 291 254 292 254 293 255 293 256 294 256 298 260 299 260 300 261 300 262 301 262 304 265 304 266 305 267 305 268 306 269 306 271 307 272 307 273 307 267 309 265 308 264 309 263 315 263 316 262 317 263 322 263 323 264 334 264 335 263 339 263 340 264 342 264 343 265 345 265 346 266 348 266 350 268 352 268 353 269 354 269 355 270 356 270 357 271 360 271 361 270 363 270 364 269 370 269 371 270 371 272 372 272 373 271 379 271 381 273 380 274 378 274 379 275 381 275 382 274 387 274 388 273 392 273 393 274 396 274 397 273 399 273 399 0  Z "/>
	<path fill="white" d="M 172 306 173 305 174 306 173 307  Z "/>
	<path fill="white" d="M 174 304 175 303 176 304 175 305  Z "/>
	<path fill="white" d="M 178 302 179 301 180 302 179 303  Z "/>
	<path fill="white" d="M 177 299 178 300 178 303 177 304 176 304 175 303 175 301  Z "/>
	<path fill="white" d="M 165 296 166 295 167 296 166 297  Z "/>
	<path fill="white" d="M 170 295 171 294 172 294 173 295 174 295 175 296 175 298 174 299 173 298 172 298 170 296  Z "/>
	<path fill="white" d="M 164 294 165 293 166 294 166 295 165 296 164 295  Z "/>
	<path fill="white" d="M 169 291 170 290 171 291 170 292  Z "/>
	<path fill="white" d="M 170 290 171 289 172 290 171 291  Z "/>
	<path fill="white" d="M 169 286 170 285 171 286 170 287  Z "/>
	<path fill="white" d="M 176 285 177 284 178 285 177 286  Z "/>
	<path fill="white" d="M 158 281 159 280 160 280 161 281 160 282 160 283 159 284 158 284 157 283 158 282  Z "/>
	<path fill="white" d="M 154 269 155 268 156 269 156 270 155 271 154 270  Z "/>
	<path fill="white" d="M 152 268 153 269 153 272 154 273 154 274 153 275 151 275 150 274 150 273 151 272 151 271 150 270  Z "/>
	<path fill="white" d="M 151 266 152 265 153 265 154 266 154 267 155 268 154 269 153 269 151 267  Z "/>
	<path fill="white" d="M 184 261 185 260 187 260 188 261 188 262 187 263 185 263 184 262  Z "/>
	<path fill="white" d="M 155 245 156 244 158 244 159 245 158 246 156 246  Z "/>
	<path fill="white" d="M 163 243 164 242 165 243 165 244 164 245 160 245 159 244 160 243  Z "/>
	<path fill="white" d="M 153 242 154 241 155 242 154 243  Z "/>
	<path fill="white" d="M 151 236 152 237 152 239 150 241 149 241 149 243 151 245 155 245 156 246 154 248 154 249 152 251 151 251 150 252 150 254 151 255 151 257 149 259 148 258 148 257 144 253 144 252 145 251 145 250 144 249 144 244 144 249 143 250 142 249 142 243 143 242 144 242 148 238 149 238  Z "/>
	<path fill="white" d="M 148 233 149 232 150 232 151 233 151 234 150 235 149 235 148 234  Z "/>
	<path fill="white" d="M 151 231 152 230 153 231 152 232  Z "/>
	<path fill="white" d="M 152 230 153 229 154 230 153 231  Z "/>
	<path fill="white" d="M 155 229 156 228 157 229 156 230  Z "/>
	<path fill="white" d="M 153 229 154 228 155 229 154 230  Z "/>
	<path fill="white" d="M 156 228 157 227 158 228 157 229  Z "/>
	<path fill="white" d="M 164 227 165 226 166 227 167 227 168 228 169 228 170 229 170 228 171 227 172 227 173 228 173 229 175 231 170 236 167 236 166 235 165 236 164 236 163 235 163 234 165 232 166 232 164 232 160 236 159 235 158 236 156 236 156 237 155 238 155 239 154 240 153 239 153 237 152 237 151 236 154 233 154 232 157 229 158 229 159 228 161 228 162 227 163 228 164 228  Z "/>
	<path fill="white" d="M 167 226 168 225 169 226 169 227 168 228 167 227  Z "/>
	<path fill="white" d="M 159 225 160 226 160 227 159 228 158 228 157 227  Z "/>
	<path fill="white" d="M 302 172 303 171 304 172 303 173  Z "/>
	<path fill="white" d="M 122 168 123 167 124 168 124 170 123 171 122 170  Z "/>
	<path fill="white" d="M 216 164 217 163 218 164 217 165  Z "/>
	<path fill="white" d="M 125 164 126 163 127 164 126 165  Z "/>
	<path fill="white" d="M 249 162 250 161 251 162 251 163 250 164 249 163  Z "/>
	<path fill="white" d="M 137 160 138 159 145 159 146 160 147 160 148 161 146 163 147 164 148 164 149 165 150 165 151 166 147 170 145 170 144 171 143 171 142 172 140 172 139 173 138 173 135 170 135 168 136 167 139 167 139 166 135 166 134 167 133 167 132 168 131 168 129 170 129 171 128 172 127 172 125 174 124 174 123 173 123 172 124 171 125 171 126 170 126 169 128 167 129 167 131 165 132 165 133 164 135 164 136 163 139 163 140 162 142 162 139 162  Z "/>
	<path fill="white" d="M 246 158 247 157 248 158 247 159  Z "/>
	<path fill="white" d="M 301 149 302 148 304 150 304 152 305 153 305 154 306 155 306 165 305 166 305 168 304 169 302 167 302 162 301 161 301 159 300 158 300 153 301 152  Z "/>
	<path fill="white" d="M 301 147 302 146 303 147 302 148  Z "/>
	<path fill="white" d="M 116 106 117 105 118 106 117 107  Z "/>
	<path fill="white" d="M 122 84 123 83 124 83 125 84 125 86 124 87 124 88 123 89 123 90 122 91 122 94 121 95 121 97 120 98 120 100 119 101 119 102 118 103 116 101 116 100 117 99 117 95 118 94 118 91 120 89 120 87 122 85  Z "/>
	<path fill="white" d="M 170 48 171 47 172 48 171 49  Z "/>
	<path fill="white" d="M 237 45 238 44 239 45 238 46  Z "/>
	<path fill="white" d="M 204 44 205 43 206 44 205 45  Z "/>
</svg>
